<svg width="80" height="76" viewBox="0 0 80 76" fill="none" xmlns="http://www.w3.org/2000/svg">
<path d="M53.3334 8.29719V22.992L40.0433 30.7153L26.6666 22.9923V8.2975L40.0433 0.574219L53.3334 8.29719Z" fill="#E7DBFF"/>
<path d="M53.3335 8.29688V22.9917L40.0433 30.715V16.0202L53.3335 8.29688Z" fill="#551981"/>
<path d="M40.0433 16.0203V30.7152L26.6666 22.9922V8.29736L40.0433 16.0203Z" fill="#C0A9F0"/>
<path d="M53.3334 53.0071V67.702L40.0433 75.4253L26.6666 67.7023V53.0075L40.0433 45.2842L53.3334 53.0071Z" fill="#E7DBFF"/>
<path d="M53.3335 53.0073V67.7022L40.0433 75.4254V60.7306L53.3335 53.0073Z" fill="#551981"/>
<path d="M40.0433 60.7308V75.4256L26.6666 67.7027V53.0078L40.0433 60.7308Z" fill="#C0A9F0"/>
<path d="M26.6666 53.0071V67.702L13.3767 75.4253L0 67.7023V53.0075L13.3767 45.2842L26.6666 53.0071Z" fill="#E7DBFF"/>
<path d="M26.6666 53.0073V67.7022L13.3768 75.4254V60.7306L26.6666 53.0073Z" fill="#551981"/>
<path d="M13.3767 60.7308V75.4256L0 67.7027V53.0078L13.3767 60.7308Z" fill="#C0A9F0"/>
<path d="M80.0001 53.0071V67.702L66.7101 75.4253L53.3335 67.7023V53.0075L66.7101 45.2842L80.0001 53.0071Z" fill="#E7DBFF"/>
<path d="M79.9999 53.0073V67.7022L66.7099 75.4254V60.7306L79.9999 53.0073Z" fill="#551981"/>
<path d="M66.7101 60.7308V75.4256L53.3335 67.7027V53.0078L66.7101 60.7308Z" fill="#C0A9F0"/>
<path d="M66.6668 30.5765V45.2715L53.3768 52.9948L40.0433 45.2718V30.5768L53.3768 22.8535L66.6668 30.5765Z" fill="#E7DBFF"/>
<path d="M66.6668 30.5762V45.2712L53.3768 52.9945V38.2995L66.6668 30.5762Z" fill="#551981"/>
<path d="M53.3768 38.2996V52.9946L40.0433 45.2717V30.5767L53.3768 38.2996Z" fill="#C0A9F0"/>
<path d="M40.0433 30.5765V45.2715L26.71 52.9948L13.3334 45.2718V30.5768L26.71 22.8535L40.0433 30.5765Z" fill="#E7DBFF"/>
<path d="M40.0433 30.5762V45.2712L26.71 52.9945V38.2995L40.0433 30.5762Z" fill="#551981"/>
<path d="M26.71 38.2996V52.9946L13.3334 45.2717V30.5767L26.71 38.2996Z" fill="#C0A9F0"/>
</svg>
