<svg width="26" height="46" viewBox="0 0 26 46" fill="none" xmlns="http://www.w3.org/2000/svg">
<path d="M24.592 34.0937C24.2326 33.7344 23.7452 33.5325 23.2369 33.5325C22.7287 33.5325 22.2413 33.7344 21.8818 34.0937L14.9167 41.0531V1.91667C14.9167 1.40834 14.7147 0.920823 14.3553 0.561379C13.9959 0.201934 13.5083 0 13 0C12.4917 0 12.0042 0.201934 11.6447 0.561379C11.2853 0.920823 11.0833 1.40834 11.0833 1.91667V41.032L4.14693 34.0937C3.97208 33.9034 3.76058 33.7505 3.52512 33.6441C3.28967 33.5377 3.03513 33.48 2.77681 33.4744C2.51849 33.4689 2.26171 33.5157 2.02192 33.6119C1.78212 33.7081 1.56426 33.8518 1.38143 34.0344C1.1986 34.217 1.05457 34.4347 0.957995 34.6743C0.861424 34.914 0.814307 35.1707 0.819475 35.429C0.824644 35.6873 0.881992 35.942 0.988071 36.1776C1.09415 36.4132 1.24677 36.6249 1.43676 36.8L8.94818 44.3114C9.48213 44.8455 10.116 45.2691 10.8137 45.5581C11.5114 45.8471 12.2592 45.9959 13.0144 45.9959C13.7696 45.9959 14.5174 45.8471 15.215 45.5581C15.9127 45.2691 16.5466 44.8455 17.0806 44.3114L24.592 36.8C24.9502 36.4407 25.1513 35.9541 25.1513 35.4468C25.1513 34.9395 24.9502 34.4529 24.592 34.0937Z" fill="#C0A9F0"/>
</svg>
